<?xml version="1.0" encoding="UTF-8"?>
<svg width="479px" height="77px" viewBox="0 0 479 77" version="1.1" xmlns="http://www.w3.org/2000/svg" xmlns:xlink="http://www.w3.org/1999/xlink">
    <!-- Generator: Sketch 43.1 (39012) - http://www.bohemiancoding.com/sketch -->
    <title>Борис и Елена</title>
    <desc>Created with Sketch.</desc>
    <defs></defs>
    <g id="Page-1" stroke="none" stroke-width="1" fill="none" fill-rule="evenodd">
        <g id="Desktop-HD-Copy-5" transform="translate(-483.000000, -239.000000)" fill="#FFFFFF">
            <g id="Group-3" transform="translate(394.000000, 239.000000)">
                <g id="Group">
                    <path d="M99.9416306,36.9922331 C97.3430775,41.8780743 94.48,47.7036598 94.48,50.51 C94.48,51.86 95.2,52.49 96.73,52.49 C100.51,52.49 122.38,47.18 122.38,38.27 C122.38,32.87 117.16,32.87 114.73,32.87 C109.592792,32.8015039 104.716235,34.4533038 99.9416306,36.9922331 L99.9416306,36.9922331 Z M104.120462,29.3634275 C106.733437,28.6188158 109.684464,28.19 113.29,28.19 C121.57,28.19 126.7,32.96 126.61,39.17 C126.43,53.3 104.92,57.53 99.88,57.53 C95.02,57.53 88.99,53.75 88.99,48.71 C88.99,41.69 101.68,18.38 109.69,6.32 C110.68,6.14 111.49,6.05 112.12,6.05 C114.19,6.05 114.91,6.86 114.91,8.12 C114.91,11.1887251 108.787423,21.1367501 104.120462,29.3634275 L104.120462,29.3634275 Z M99.9416306,36.9922331 C100.759862,35.4537804 101.551867,34.0085027 102.22,32.78 C102.808367,31.6937848 103.449365,30.5464029 104.120462,29.3634275 C101.515511,30.1057527 99.2465402,31.1619375 97,32.42 C95.83,33.05 95.56,39.44 95.47,39.62 C96.9537687,38.6738286 98.4426754,37.7893129 99.9416306,36.9922331 L99.9416306,36.9922331 Z M125.8,7.85 L120.31,8.75 C117.97,9.11 115.9,9.38 114.1,9.38 C109.42,9.38 104.47,7.22 104.47,3.8 C104.47,3.35 104.74,3.08 105.28,3.08 C106.09,3.08 106.9,3.17 107.8,3.17 C115.81,3.17 128.23,0.56 133.18,0.56 C136.15,0.56 142.27,1.55 142.27,5.69 C142.27,6.14 142,6.5 141.28,6.5 C140.38,6.5 139.48,6.41 138.58,6.41 C134.62,6.32 130.03,7.13 125.8,7.85 Z M165.91,36.65 C165.28,37.37 164.38,37.73 163.48,37.82 C161.59,45.47 155.92,54.56 149.26,56.81 C146.02,57.89 141.52,57.53 137.92,52.85 C133.96,47.63 135.31,39.8 139.36,32.6 C142.78,26.48 148.27,21.26 153.67,20.9 C156.46,20.72 157.99,21.53 159.79,23.96 C161.86,26.75 164.56,27.38 164.02,33.86 C163.93,34.58 163.93,35.21 163.84,35.93 C164.38,35.93 164.92,35.75 165.64,35.75 C166.27,35.75 166.27,36.2 165.91,36.65 Z M158.17,34.22 C158.89,31.43 159.16,29.18 158.89,27.56 C158.44,24.68 156.64,25.22 156.19,27.83 C155.74,30.26 156.73,32.87 158.17,34.22 Z M157.54,36.65 C156.91,36.38 156.37,36.02 155.83,35.57 C153.94,34.13 151.78,30.98 151.69,27.65 C149.26,29.72 146.65,32.69 144.76,36.11 C140.98,42.95 139.63,51.23 141.97,53.21 C144.49,55.28 149.98,52.13 154.39,43.85 C155.74,41.33 156.82,38.81 157.54,36.65 Z M189.99,55.64 C198.81,55.1 204.21,48.62 207.09,42.5 C207.63,41.24 208.62,41.6 208.8,42.5 C208.98,43.31 209.16,45.65 207.63,48.44 C204.21,54.65 198.09,57.62 191.61,58.07 C185.85,58.43 182.07,57.62 178.92,54.74 C177.03,53.03 176.13,50.96 175.86,48.71 C171.63,56.45 167.04,65.63 162.72,75.62 C162.36,76.43 161.73,76.61 161.19,75.8 C159.84,73.91 159.39,71.39 161.1,65.9 C163.8,57.17 178.92,28.64 184.59,21.08 C185.49,19.91 186.3,20.09 186.75,21.17 C187.2,22.34 187.38,23.69 187.29,25.22 C191.25,21.8 196.56,19.28 200.43,23.33 C204.75,27.92 202.77,35.93 199.44,43.31 C196.74,49.25 193.41,53.57 189.99,55.64 Z M180.9,39.71 C178.65,45.38 178.2,50.78 180.72,52.85 C183.6,55.19 189.45,48.62 193.68,39.98 C197.19,32.78 198.18,25.31 195.93,24.23 C193.77,23.15 188.19,27.65 183.96,34.58 C182.97,36.2 181.98,37.82 180.9,39.71 Z M228.83,48.71 C228.11,53.93 230.45,57.62 236.3,57.62 C241.61,57.62 247.19,53.03 249.8,47.99 C251.06,45.47 250.97,43.04 250.61,42.32 C250.25,41.51 249.44,41.6 248.99,42.41 C245.48,48.71 240.89,54.65 237.11,54.83 C233.87,55.01 233.51,51.23 235.85,46.1 C237.92,41.51 242.42,34.76 244.4,30.71 C246.56,26.21 245.84,22.25 244.49,20.63 C243.77,19.73 243.14,19.91 242.24,21.17 C239.36,25.04 236.75,31.25 231.08,40.43 C226.22,48.26 221.27,54.56 217.76,54.29 C215.69,54.11 215.42,50.87 217.31,46.46 C219.2,42.14 221,38.54 224.33,33.23 C227.57,28.1 228.02,24.05 226.04,21.08 C225.32,20.27 224.42,20.18 223.7,21.17 C217.85,29.36 213.26,38.18 211.28,44.12 C209.3,50.06 209.48,56.72 215.87,57.17 C220.91,57.53 225.68,52.94 228.83,48.71 Z M275.05,21.26 C270.55,18.56 261.46,23.42 255.7,34.76 C249.85,46.37 253.72,57.53 265.15,57.35 C271.99,57.26 279.1,52.85 282.52,47.54 C284.05,45.11 284.41,42.86 284.14,42.14 C283.78,41.24 282.97,41.33 282.52,42.05 C278.83,47.72 272.35,54.92 264.79,54.83 C259.48,54.74 257.59,47.27 262.54,37.1 C266.59,28.91 273.34,23.15 274.87,24.41 C276.13,25.4 273.43,29.27 272.44,32.51 C271.18,36.56 272.44,39.26 274.6,40.34 C275.77,40.97 276.13,40.7 276.49,39.62 C278.29,34.76 281.89,29.99 280,26.21 C278.92,24.14 277.48,22.7 275.05,21.26 Z M328.25,48.71 C327.53,53.93 329.87,57.62 335.72,57.62 C341.03,57.62 346.61,53.03 349.22,47.99 C350.48,45.47 350.39,43.04 350.03,42.32 C349.67,41.51 348.86,41.6 348.41,42.41 C344.9,48.71 340.31,54.65 336.53,54.83 C333.29,55.01 332.93,51.23 335.27,46.1 C337.34,41.51 341.84,34.76 343.82,30.71 C345.98,26.21 345.26,22.25 343.91,20.63 C343.19,19.73 342.56,19.91 341.66,21.17 C338.78,25.04 336.17,31.25 330.5,40.43 C325.64,48.26 320.69,54.56 317.18,54.29 C315.11,54.11 314.84,50.87 316.73,46.46 C318.62,42.14 320.42,38.54 323.75,33.23 C326.99,28.1 327.44,24.05 325.46,21.08 C324.74,20.27 323.84,20.18 323.12,21.17 C317.27,29.36 312.68,38.18 310.7,44.12 C308.72,50.06 308.9,56.72 315.29,57.17 C320.33,57.53 325.1,52.94 328.25,48.71 Z M396.39,8.75 C394.14,7.85 393.15,6.05 392.61,4.16 C392.43,3.35 392.7,2.99 393.6,3.08 C401.07,3.53 410.97,0.92 416.01,0.83 C419.79,0.74 421.77,2.27 422.85,5.24 C423.12,5.96 422.94,6.59 421.86,6.41 C415.38,6.32 409.08,7.94 403.59,8.84 C399.99,14.24 395.58,22.07 391.17,30.08 C393.6,29.63 395.94,29.45 397.56,29.36 C402.06,29.18 404.04,30.62 404.94,33.41 C405.21,34.22 405.21,34.76 404.04,34.76 C399.18,34.76 392.43,36.02 387.39,37.28 C384.78,42.32 382.35,47.27 380.46,51.5 C384.78,50.15 390.72,48.89 394.41,48.71 C398.82,48.53 401.07,49.97 402.06,52.67 C402.33,53.48 402.24,54.02 401.16,54.02 C396.12,53.93 386.31,56.27 381.27,57.62 C379.56,58.07 378.57,58.07 377.49,56.72 C376.77,55.91 376.23,54.56 375.6,53.39 C374.79,51.86 374.79,50.69 375.69,48.26 C379.83,37.19 388.83,20.45 396.39,8.75 Z M441.09,54.83 C444.78,54.65 449.19,48.71 452.61,42.41 C453.06,41.6 453.69,41.6 454.14,42.32 C454.77,43.31 454.59,45.38 453.33,47.99 C450.9,53.03 445.23,57.62 440.01,57.62 C431.73,57.62 428.85,52.76 436.68,37.01 L435.96,36.92 C428.31,51.5 422.46,57.44 417.6,57.44 C411.21,57.44 411.93,51.5 413.64,47.09 C414.72,44.21 419.22,43.04 417.87,45.47 C415.62,49.52 415.17,54.83 417.33,54.83 C419.67,54.83 424.08,49.43 433.53,34.67 L442.98,20 C443.88,18.74 445.41,18.56 446.13,19.46 C447.48,21.08 447.57,24.5 446.4,27.65 L439.29,46.73 C437.22,52.04 437.58,55.01 441.09,54.83 Z M462.02,40.61 C459.14,48.89 461.3,54.56 466.07,54.83 C473.54,55.19 480.11,47.99 483.98,42.05 C484.43,41.33 485.15,41.33 485.51,42.14 C485.87,42.86 485.6,45.38 483.98,47.72 C480.2,53.21 473.27,57.35 466.34,57.44 C454.91,57.62 450.95,46.37 456.8,34.76 C462.65,23.15 471.83,18.47 476.33,21.08 C478.58,22.43 480.2,23.78 481.64,25.76 C483.26,27.92 482.54,33.41 478.76,38 C474.35,43.4 468.32,45.74 462.02,40.61 Z M462.83,38.63 C467.24,41.42 470.93,37.55 473.54,34.13 C476.42,30.35 478.4,25.67 477.14,24.68 C475.25,23.15 467.78,28.55 463.55,37.1 C463.28,37.64 463.01,38.18 462.83,38.63 Z M501.67,30.08 C497.8,36.92 491.86,47.99 487.99,56.45 C487.63,57.26 487.09,57.62 486.28,56.81 C484.48,55.01 483.94,52.04 485.38,47.54 C487.18,41.87 494.11,29.36 499.78,20.99 C500.41,20 501.13,20.09 501.67,20.99 C503.02,23.24 503.38,27.11 501.67,30.08 Z M511.03,33.86 L510.31,37.91 C505.63,40.16 488.26,42.77 488.26,42.77 C485.65,43.31 486.55,39.35 489.43,38.72 C489.43,38.72 506.89,36.2 511.03,33.86 Z M510.04,57.35 C503.2,57.35 501.49,51.59 504.01,44.21 C506.26,37.64 512.2,27.02 515.53,22.34 C516.34,21.26 516.97,20.99 517.69,21.8 C519.04,23.24 519.76,27.11 517.6,31.61 C515.71,35.57 511.93,41.69 510.04,46.19 C507.88,51.41 508.06,54.92 510.94,54.74 C514.99,54.56 519.94,48.62 522.64,42.41 C523.09,41.6 523.72,41.69 524.08,42.41 C524.8,43.85 524.53,45.74 523.45,47.99 C520.75,53.57 515.08,57.35 510.04,57.35 Z M556.26,26.75 C557.43,24.59 558.51,22.7 559.5,21.26 C560.31,20.09 561.03,19.91 561.66,20.72 C563.01,22.34 563.73,26.21 561.57,30.71 C559.59,34.76 555.09,41.51 552.93,46.28 C550.68,51.32 550.59,55.19 553.65,55.01 C557.34,54.83 562.29,48.71 565.44,42.5 C565.89,41.69 566.52,41.6 566.88,42.41 C567.24,43.22 567.24,45.47 566.07,47.99 C563.73,52.94 558.06,57.89 553.11,57.62 C548.25,57.35 545.73,54.47 545.73,50.24 C542.85,53.93 538.8,57.26 534.48,57.26 C526.11,57.26 524.4,45.83 531.87,34.94 C539.16,24.32 546.27,20.27 550.77,20.27 C554.64,20.27 556.44,23.24 556.26,26.75 Z M548.43,40.7 C554.1,30.8 554.91,25.22 552.3,24.95 C549.42,24.68 542.85,30.53 537.9,38.54 C533.13,46.28 531.96,54.2 535.47,54.29 C539.16,54.38 543.84,48.62 548.43,40.7 Z" id="Борис-и-Елена"></path>
                </g>
            </g>
        </g>
    </g>
</svg>